<?xml version="1.0" standalone="no"?>
<!DOCTYPE svg PUBLIC "-//W3C//DTD SVG 20010904//EN"
 "http://www.w3.org/TR/2001/REC-SVG-20010904/DTD/svg10.dtd">
<svg version="1.0" xmlns="http://www.w3.org/2000/svg"
 width="400.000000pt" height="200.000000pt" viewBox="0 0 400.000000 200.000000"
 preserveAspectRatio="xMidYMid meet">

<g transform="translate(0.000000,200.000000) scale(0.100000,-0.100000)"
fill="#000000" stroke="none">
<path d="M190 1056 c-13 -17 -33 -146 -27 -179 3 -19 4 -18 11 8 13 53 15 55
36 55 16 0 20 -7 20 -32 0 -37 13 -63 27 -55 10 6 -9 186 -21 206 -10 15 -31
14 -46 -3z m30 -13 c0 -10 3 -35 6 -55 6 -36 5 -38 -20 -38 -21 0 -26 4 -23
18 3 9 8 34 12 55 6 37 25 52 25 20z"/>
<path d="M490 1010 c0 -46 -2 -50 -24 -50 -31 0 -48 -22 -44 -57 3 -25 7 -28
36 -27 25 2 32 -2 32 -17 0 -10 6 -19 13 -19 9 0 12 30 14 110 1 88 -2 110
-13 110 -10 0 -14 -14 -14 -50z m-10 -76 c0 -21 -18 -54 -30 -54 -11 0 -14 53
-3 63 12 13 33 7 33 -9z"/>
<path d="M913 973 c4 -49 7 -96 7 -106 0 -32 25 -12 30 24 l6 34 17 -32 c24
-44 41 -42 20 2 -15 32 -15 36 0 53 41 46 8 112 -56 112 l-30 0 6 -87z m59 60
c22 -20 23 -42 2 -71 -24 -35 -34 -26 -34 33 0 59 4 64 32 38z"/>
<path d="M335 961 c-4 -12 -12 -18 -21 -14 -11 4 -14 -4 -14 -36 0 -30 4 -41
15 -41 10 0 15 10 15 33 0 17 4 38 9 46 15 24 31 1 31 -45 0 -24 5 -44 10 -44
11 0 13 42 4 89 -7 36 -39 43 -49 12z"/>
<path d="M661 961 c-6 -11 -11 -36 -11 -55 0 -40 22 -58 56 -46 21 8 41 40 25
40 -5 0 -11 -7 -15 -15 -3 -8 -12 -15 -20 -15 -26 0 -29 21 -6 42 24 23 23 61
-2 66 -9 2 -21 -6 -27 -17z m20 -44 c-13 -13 -15 11 -4 40 7 16 8 15 11 -6 2
-13 -1 -28 -7 -34z"/>
<path d="M1060 965 c-22 -26 -18 -85 6 -101 20 -14 24 -13 50 10 16 14 24 26
18 26 -6 0 -17 -7 -24 -15 -14 -17 -40 -20 -40 -5 0 6 10 24 21 40 33 43 3 86
-31 45z m21 -42 c-9 -16 -10 -15 -11 8 0 14 3 29 8 33 12 12 14 -22 3 -41z"/>
<path d="M1286 958 c-20 -29 -20 -72 0 -92 8 -9 19 -16 22 -16 14 0 52 31 52
42 0 6 -8 4 -18 -5 -41 -37 -55 -14 -21 33 23 30 20 60 -5 60 -8 0 -22 -10
-30 -22z m34 -5 c0 -10 -5 -25 -10 -33 -7 -11 -10 -7 -10 18 0 17 5 32 10 32
6 0 10 -8 10 -17z"/>
<path d="M770 960 c-12 -7 -11 -15 9 -50 l23 -42 -22 7 c-15 5 -20 4 -16 -4
10 -15 56 -14 56 2 0 6 -9 25 -19 41 -23 35 -20 46 12 39 18 -4 19 -3 7 6 -18
13 -31 13 -50 1z"/>
<path d="M1216 960 c-2 -8 -7 -27 -10 -42 -8 -35 -26 -37 -26 -4 0 14 -5 28
-11 31 -7 5 -9 -6 -7 -31 3 -33 6 -39 26 -38 19 0 22 -4 22 -38 0 -27 4 -38
15 -38 12 0 15 15 15 73 0 71 -13 119 -24 87z"/>
<path d="M1392 957 c-8 -9 -6 -21 8 -42 24 -37 25 -46 3 -38 -11 4 -14 3 -9
-5 10 -17 46 -15 46 2 0 8 -8 28 -17 45 -19 33 -12 51 12 31 8 -7 15 -8 15 -2
0 9 -22 22 -40 22 -4 0 -12 -6 -18 -13z"/>
<path d="M552 918 c4 -49 23 -61 31 -20 3 16 13 37 22 46 22 21 7 21 -17 -1
-17 -15 -18 -15 -18 0 0 10 -5 17 -11 17 -6 0 -9 -17 -7 -42z"/>
</g>
</svg>
